<svg xmlns="http://www.w3.org/2000/svg" width="1120" height="680" viewBox="0 0 1120 680" role="img" aria-label="Table demo">
  <defs>
    <linearGradient id="bg" x1="0" y1="0" x2="1" y2="1">
      <stop offset="0" stop-color="#1b0b2b" />
      <stop offset="0.48" stop-color="#081724" />
      <stop offset="1" stop-color="#100812" />
    </linearGradient>
  </defs>
  <rect width="1120" height="680" rx="30" fill="url(#bg)" />
  <rect x="18" y="18" width="1084" height="644" rx="24" fill="#050813" opacity="0.96" stroke="#5f7191" stroke-opacity="0.38" />
  <circle cx="48" cy="48" r="7" fill="#ff7ac8" />
  <circle cx="72" cy="48" r="7" fill="#ffd36e" />
  <circle cx="96" cy="48" r="7" fill="#82ffbd" />
  <text x="126" y="54" font-family="ui-monospace, SFMono-Regular, Menlo, Consolas, monospace" font-size="15" fill="#ffd36e">Table demo</text>
  <g font-family="ui-monospace, SFMono-Regular, Menlo, Consolas, monospace" font-size="12" xml:space="preserve">
<rect x="38.0" y="72.5" width="9.3" height="17.6" fill="#1c1c1c" />
<rect x="47.3" y="72.5" width="9.3" height="17.6" fill="#1c1c1c" />
<rect x="56.6" y="72.5" width="9.3" height="17.6" fill="#1c1c1c" />
<rect x="66.0" y="72.5" width="9.3" height="17.6" fill="#1c1c1c" />
<rect x="75.3" y="72.5" width="9.3" height="17.6" fill="#1c1c1c" />
<rect x="84.6" y="72.5" width="9.3" height="17.6" fill="#1c1c1c" />
<rect x="93.9" y="72.5" width="9.3" height="17.6" fill="#1c1c1c" />
<rect x="103.3" y="72.5" width="9.3" height="17.6" fill="#1c1c1c" />
<rect x="112.6" y="72.5" width="9.3" height="17.6" fill="#1c1c1c" />
<rect x="121.9" y="72.5" width="9.3" height="17.6" fill="#1c1c1c" />
<rect x="131.2" y="72.5" width="9.3" height="17.6" fill="#1c1c1c" />
<rect x="140.5" y="72.5" width="9.3" height="17.6" fill="#1c1c1c" />
<rect x="149.9" y="72.5" width="9.3" height="17.6" fill="#1c1c1c" />
<rect x="159.2" y="72.5" width="9.3" height="17.6" fill="#1c1c1c" />
<rect x="168.5" y="72.5" width="9.3" height="17.6" fill="#1c1c1c" />
<rect x="177.8" y="72.5" width="9.3" height="17.6" fill="#1c1c1c" />
<rect x="187.1" y="72.5" width="9.3" height="17.6" fill="#1c1c1c" />
<rect x="196.5" y="72.5" width="9.3" height="17.6" fill="#1c1c1c" />
<rect x="205.8" y="72.5" width="9.3" height="17.6" fill="#1c1c1c" />
<rect x="215.1" y="72.5" width="9.3" height="17.6" fill="#1c1c1c" />
<rect x="224.4" y="72.5" width="9.3" height="17.6" fill="#1c1c1c" />
<rect x="233.8" y="72.5" width="9.3" height="17.6" fill="#1c1c1c" />
<rect x="243.1" y="72.5" width="9.3" height="17.6" fill="#1c1c1c" />
<rect x="252.4" y="72.5" width="9.3" height="17.6" fill="#1c1c1c" />
<rect x="261.7" y="72.5" width="9.3" height="17.6" fill="#1c1c1c" />
<rect x="271.0" y="72.5" width="9.3" height="17.6" fill="#1c1c1c" />
<rect x="280.4" y="72.5" width="9.3" height="17.6" fill="#1c1c1c" />
<rect x="289.7" y="72.5" width="9.3" height="17.6" fill="#1c1c1c" />
<rect x="299.0" y="72.5" width="9.3" height="17.6" fill="#1c1c1c" />
<rect x="308.3" y="72.5" width="9.3" height="17.6" fill="#1c1c1c" />
<rect x="317.6" y="72.5" width="9.3" height="17.6" fill="#1c1c1c" />
<rect x="327.0" y="72.5" width="9.3" height="17.6" fill="#1c1c1c" />
<rect x="336.3" y="72.5" width="9.3" height="17.6" fill="#1c1c1c" />
<rect x="345.6" y="72.5" width="9.3" height="17.6" fill="#1c1c1c" />
<rect x="354.9" y="72.5" width="9.3" height="17.6" fill="#1c1c1c" />
<rect x="364.3" y="72.5" width="9.3" height="17.6" fill="#1c1c1c" />
<rect x="373.6" y="72.5" width="9.3" height="17.6" fill="#1c1c1c" />
<rect x="382.9" y="72.5" width="9.3" height="17.6" fill="#1c1c1c" />
<rect x="392.2" y="72.5" width="9.3" height="17.6" fill="#1c1c1c" />
<rect x="401.5" y="72.5" width="9.3" height="17.6" fill="#1c1c1c" />
<rect x="410.9" y="72.5" width="9.3" height="17.6" fill="#1c1c1c" />
<rect x="420.2" y="72.5" width="9.3" height="17.6" fill="#1c1c1c" />
<rect x="429.5" y="72.5" width="9.3" height="17.6" fill="#1c1c1c" />
<rect x="438.8" y="72.5" width="9.3" height="17.6" fill="#1c1c1c" />
<rect x="448.1" y="72.5" width="9.3" height="17.6" fill="#1c1c1c" />
<rect x="457.5" y="72.5" width="9.3" height="17.6" fill="#1c1c1c" />
<rect x="466.8" y="72.5" width="9.3" height="17.6" fill="#1c1c1c" />
<rect x="476.1" y="72.5" width="9.3" height="17.6" fill="#1c1c1c" />
<rect x="485.4" y="72.5" width="9.3" height="17.6" fill="#1c1c1c" />
<rect x="494.8" y="72.5" width="9.3" height="17.6" fill="#1c1c1c" />
<rect x="504.1" y="72.5" width="9.3" height="17.6" fill="#1c1c1c" />
<rect x="513.4" y="72.5" width="9.3" height="17.6" fill="#1c1c1c" />
<rect x="522.7" y="72.5" width="9.3" height="17.6" fill="#1c1c1c" />
<rect x="532.0" y="72.5" width="9.3" height="17.6" fill="#1c1c1c" />
<rect x="541.4" y="72.5" width="9.3" height="17.6" fill="#1c1c1c" />
<rect x="550.7" y="72.5" width="9.3" height="17.6" fill="#1c1c1c" />
<rect x="560.0" y="72.5" width="9.3" height="17.6" fill="#1c1c1c" />
<rect x="569.3" y="72.5" width="9.3" height="17.6" fill="#1c1c1c" />
<rect x="578.6" y="72.5" width="9.3" height="17.6" fill="#1c1c1c" />
<rect x="588.0" y="72.5" width="9.3" height="17.6" fill="#1c1c1c" />
<rect x="597.3" y="72.5" width="9.3" height="17.6" fill="#1c1c1c" />
<rect x="606.6" y="72.5" width="9.3" height="17.6" fill="#1c1c1c" />
<rect x="615.9" y="72.5" width="9.3" height="17.6" fill="#1c1c1c" />
<rect x="625.3" y="72.5" width="9.3" height="17.6" fill="#1c1c1c" />
<rect x="634.6" y="72.5" width="9.3" height="17.6" fill="#1c1c1c" />
<rect x="643.9" y="72.5" width="9.3" height="17.6" fill="#1c1c1c" />
<rect x="653.2" y="72.5" width="9.3" height="17.6" fill="#1c1c1c" />
<rect x="662.5" y="72.5" width="9.3" height="17.6" fill="#1c1c1c" />
<rect x="671.9" y="72.5" width="9.3" height="17.6" fill="#1c1c1c" />
<rect x="681.2" y="72.5" width="9.3" height="17.6" fill="#1c1c1c" />
<rect x="690.5" y="72.5" width="9.3" height="17.6" fill="#1c1c1c" />
<rect x="280.4" y="107.7" width="9.3" height="17.6" fill="#1c1c1c" />
<rect x="289.7" y="107.7" width="9.3" height="17.6" fill="#1c1c1c" />
<rect x="299.0" y="107.7" width="9.3" height="17.6" fill="#1c1c1c" />
<rect x="308.3" y="107.7" width="9.3" height="17.6" fill="#1c1c1c" />
<rect x="317.6" y="107.7" width="9.3" height="17.6" fill="#1c1c1c" />
<rect x="327.0" y="107.7" width="9.3" height="17.6" fill="#1c1c1c" />
<rect x="336.3" y="107.7" width="9.3" height="17.6" fill="#1c1c1c" />
<rect x="345.6" y="107.7" width="9.3" height="17.6" fill="#1c1c1c" />
<rect x="354.9" y="107.7" width="9.3" height="17.6" fill="#1c1c1c" />
<rect x="364.3" y="107.7" width="9.3" height="17.6" fill="#1c1c1c" />
<rect x="373.6" y="107.7" width="9.3" height="17.6" fill="#1c1c1c" />
<rect x="382.9" y="107.7" width="9.3" height="17.6" fill="#1c1c1c" />
<rect x="392.2" y="107.7" width="9.3" height="17.6" fill="#1c1c1c" />
<rect x="401.5" y="107.7" width="9.3" height="17.6" fill="#1c1c1c" />
<rect x="410.9" y="107.7" width="9.3" height="17.6" fill="#1c1c1c" />
<rect x="420.2" y="107.7" width="9.3" height="17.6" fill="#1c1c1c" />
<rect x="429.5" y="107.7" width="9.3" height="17.6" fill="#1c1c1c" />
<rect x="438.8" y="107.7" width="9.3" height="17.6" fill="#1c1c1c" />
<rect x="448.1" y="107.7" width="9.3" height="17.6" fill="#1c1c1c" />
<rect x="457.5" y="107.7" width="9.3" height="17.6" fill="#1c1c1c" />
<rect x="466.8" y="107.7" width="9.3" height="17.6" fill="#1c1c1c" />
<rect x="476.1" y="107.7" width="9.3" height="17.6" fill="#1c1c1c" />
<rect x="485.4" y="107.7" width="9.3" height="17.6" fill="#1c1c1c" />
<rect x="494.8" y="107.7" width="9.3" height="17.6" fill="#1c1c1c" />
<rect x="504.1" y="107.7" width="9.3" height="17.6" fill="#1c1c1c" />
<rect x="513.4" y="107.7" width="9.3" height="17.6" fill="#1c1c1c" />
<rect x="522.7" y="107.7" width="9.3" height="17.6" fill="#1c1c1c" />
<rect x="532.0" y="107.7" width="9.3" height="17.6" fill="#1c1c1c" />
<rect x="541.4" y="107.7" width="9.3" height="17.6" fill="#1c1c1c" />
<rect x="550.7" y="107.7" width="9.3" height="17.6" fill="#1c1c1c" />
<rect x="560.0" y="107.7" width="9.3" height="17.6" fill="#1c1c1c" />
<rect x="569.3" y="107.7" width="9.3" height="17.6" fill="#1c1c1c" />
<rect x="578.6" y="107.7" width="9.3" height="17.6" fill="#1c1c1c" />
<rect x="588.0" y="107.7" width="9.3" height="17.6" fill="#1c1c1c" />
<rect x="597.3" y="107.7" width="9.3" height="17.6" fill="#1c1c1c" />
<rect x="606.6" y="107.7" width="9.3" height="17.6" fill="#1c1c1c" />
<rect x="615.9" y="107.7" width="9.3" height="17.6" fill="#1c1c1c" />
<rect x="625.3" y="107.7" width="9.3" height="17.6" fill="#1c1c1c" />
<rect x="634.6" y="107.7" width="9.3" height="17.6" fill="#1c1c1c" />
<rect x="643.9" y="107.7" width="9.3" height="17.6" fill="#1c1c1c" />
<rect x="653.2" y="107.7" width="9.3" height="17.6" fill="#1c1c1c" />
<rect x="662.5" y="107.7" width="9.3" height="17.6" fill="#1c1c1c" />
<rect x="671.9" y="107.7" width="9.3" height="17.6" fill="#1c1c1c" />
<rect x="681.2" y="107.7" width="9.3" height="17.6" fill="#1c1c1c" />
<rect x="690.5" y="107.7" width="9.3" height="17.6" fill="#1c1c1c" />
<rect x="699.8" y="107.7" width="9.3" height="17.6" fill="#1c1c1c" />
<rect x="709.1" y="107.7" width="9.3" height="17.6" fill="#1c1c1c" />
<rect x="718.5" y="107.7" width="9.3" height="17.6" fill="#1c1c1c" />
<rect x="727.8" y="107.7" width="9.3" height="17.6" fill="#1c1c1c" />
<rect x="737.1" y="107.7" width="9.3" height="17.6" fill="#1c1c1c" />
<rect x="746.4" y="107.7" width="9.3" height="17.6" fill="#1c1c1c" />
<rect x="755.8" y="107.7" width="9.3" height="17.6" fill="#1c1c1c" />
<rect x="38.0" y="143.0" width="9.3" height="17.6" fill="#444444" />
<rect x="47.3" y="143.0" width="9.3" height="17.6" fill="#444444" />
<rect x="56.6" y="143.0" width="9.3" height="17.6" fill="#444444" />
<rect x="66.0" y="143.0" width="9.3" height="17.6" fill="#444444" />
<rect x="75.3" y="143.0" width="9.3" height="17.6" fill="#444444" />
<rect x="84.6" y="143.0" width="9.3" height="17.6" fill="#444444" />
<rect x="93.9" y="143.0" width="9.3" height="17.6" fill="#444444" />
<rect x="103.3" y="143.0" width="9.3" height="17.6" fill="#444444" />
<rect x="112.6" y="143.0" width="9.3" height="17.6" fill="#444444" />
<rect x="121.9" y="143.0" width="9.3" height="17.6" fill="#444444" />
<rect x="131.2" y="143.0" width="9.3" height="17.6" fill="#444444" />
<rect x="140.5" y="143.0" width="9.3" height="17.6" fill="#444444" />
<rect x="149.9" y="143.0" width="9.3" height="17.6" fill="#444444" />
<rect x="159.2" y="143.0" width="9.3" height="17.6" fill="#444444" />
<rect x="168.5" y="143.0" width="9.3" height="17.6" fill="#444444" />
<rect x="177.8" y="143.0" width="9.3" height="17.6" fill="#444444" />
<rect x="187.1" y="143.0" width="9.3" height="17.6" fill="#444444" />
<rect x="196.5" y="143.0" width="9.3" height="17.6" fill="#444444" />
<rect x="205.8" y="143.0" width="9.3" height="17.6" fill="#444444" />
<rect x="215.1" y="143.0" width="9.3" height="17.6" fill="#444444" />
<rect x="224.4" y="143.0" width="9.3" height="17.6" fill="#444444" />
<rect x="233.8" y="143.0" width="9.3" height="17.6" fill="#444444" />
<rect x="243.1" y="143.0" width="9.3" height="17.6" fill="#444444" />
<rect x="252.4" y="143.0" width="9.3" height="17.6" fill="#444444" />
<rect x="261.7" y="143.0" width="9.3" height="17.6" fill="#444444" />
<rect x="271.0" y="143.0" width="9.3" height="17.6" fill="#444444" />
<rect x="280.4" y="143.0" width="9.3" height="17.6" fill="#444444" />
<rect x="289.7" y="143.0" width="9.3" height="17.6" fill="#444444" />
<rect x="299.0" y="143.0" width="9.3" height="17.6" fill="#444444" />
<rect x="308.3" y="143.0" width="9.3" height="17.6" fill="#444444" />
<rect x="317.6" y="143.0" width="9.3" height="17.6" fill="#444444" />
<rect x="327.0" y="143.0" width="9.3" height="17.6" fill="#444444" />
<rect x="336.3" y="143.0" width="9.3" height="17.6" fill="#444444" />
<rect x="345.6" y="143.0" width="9.3" height="17.6" fill="#444444" />
<rect x="354.9" y="143.0" width="9.3" height="17.6" fill="#444444" />
<rect x="364.3" y="143.0" width="9.3" height="17.6" fill="#444444" />
<rect x="373.6" y="143.0" width="9.3" height="17.6" fill="#444444" />
<rect x="382.9" y="143.0" width="9.3" height="17.6" fill="#444444" />
<rect x="392.2" y="143.0" width="9.3" height="17.6" fill="#444444" />
<rect x="401.5" y="143.0" width="9.3" height="17.6" fill="#444444" />
<rect x="410.9" y="143.0" width="9.3" height="17.6" fill="#444444" />
<rect x="420.2" y="143.0" width="9.3" height="17.6" fill="#444444" />
<rect x="429.5" y="143.0" width="9.3" height="17.6" fill="#444444" />
<rect x="438.8" y="143.0" width="9.3" height="17.6" fill="#444444" />
<rect x="448.1" y="143.0" width="9.3" height="17.6" fill="#444444" />
<rect x="457.5" y="143.0" width="9.3" height="17.6" fill="#444444" />
<rect x="466.8" y="143.0" width="9.3" height="17.6" fill="#444444" />
<rect x="476.1" y="143.0" width="9.3" height="17.6" fill="#444444" />
<rect x="485.4" y="143.0" width="9.3" height="17.6" fill="#444444" />
<rect x="494.8" y="143.0" width="9.3" height="17.6" fill="#444444" />
<rect x="504.1" y="143.0" width="9.3" height="17.6" fill="#444444" />
<rect x="513.4" y="143.0" width="9.3" height="17.6" fill="#444444" />
<rect x="522.7" y="143.0" width="9.3" height="17.6" fill="#444444" />
<rect x="532.0" y="143.0" width="9.3" height="17.6" fill="#444444" />
<rect x="541.4" y="143.0" width="9.3" height="17.6" fill="#444444" />
<rect x="550.7" y="143.0" width="9.3" height="17.6" fill="#444444" />
<rect x="560.0" y="143.0" width="9.3" height="17.6" fill="#444444" />
<rect x="569.3" y="143.0" width="9.3" height="17.6" fill="#444444" />
<rect x="578.6" y="143.0" width="9.3" height="17.6" fill="#444444" />
<rect x="588.0" y="143.0" width="9.3" height="17.6" fill="#444444" />
<rect x="597.3" y="143.0" width="9.3" height="17.6" fill="#444444" />
<rect x="606.6" y="143.0" width="9.3" height="17.6" fill="#444444" />
<rect x="615.9" y="143.0" width="9.3" height="17.6" fill="#444444" />
<rect x="625.3" y="143.0" width="9.3" height="17.6" fill="#444444" />
<rect x="634.6" y="143.0" width="9.3" height="17.6" fill="#444444" />
<rect x="643.9" y="143.0" width="9.3" height="17.6" fill="#444444" />
<rect x="653.2" y="143.0" width="9.3" height="17.6" fill="#444444" />
<rect x="662.5" y="143.0" width="9.3" height="17.6" fill="#444444" />
<rect x="671.9" y="143.0" width="9.3" height="17.6" fill="#444444" />
<rect x="681.2" y="143.0" width="9.3" height="17.6" fill="#444444" />
<rect x="690.5" y="143.0" width="9.3" height="17.6" fill="#444444" />
<rect x="699.8" y="143.0" width="9.3" height="17.6" fill="#444444" />
<rect x="709.1" y="143.0" width="9.3" height="17.6" fill="#444444" />
<rect x="718.5" y="143.0" width="9.3" height="17.6" fill="#444444" />
<rect x="727.8" y="143.0" width="9.3" height="17.6" fill="#444444" />
<rect x="737.1" y="143.0" width="9.3" height="17.6" fill="#444444" />
<rect x="746.4" y="143.0" width="9.3" height="17.6" fill="#444444" />
<rect x="755.8" y="143.0" width="9.3" height="17.6" fill="#444444" />
<text x="38.0" y="86.0" fill="#d0d0d0">↑</text>
<text x="47.3" y="86.0" fill="#d0d0d0">/</text>
<text x="56.6" y="86.0" fill="#d0d0d0">↓</text>
<text x="75.3" y="86.0" fill="#d0d0d0">t</text>
<text x="84.6" y="86.0" fill="#d0d0d0">o</text>
<text x="103.3" y="86.0" fill="#d0d0d0">m</text>
<text x="112.6" y="86.0" fill="#d0d0d0">o</text>
<text x="121.9" y="86.0" fill="#d0d0d0">v</text>
<text x="131.2" y="86.0" fill="#d0d0d0">e</text>
<text x="149.9" y="86.0" fill="#d0d0d0">•</text>
<text x="168.5" y="86.0" fill="#d0d0d0">E</text>
<text x="177.8" y="86.0" fill="#d0d0d0">n</text>
<text x="187.1" y="86.0" fill="#d0d0d0">t</text>
<text x="196.5" y="86.0" fill="#d0d0d0">e</text>
<text x="205.8" y="86.0" fill="#d0d0d0">r</text>
<text x="224.4" y="86.0" fill="#d0d0d0">l</text>
<text x="233.8" y="86.0" fill="#d0d0d0">o</text>
<text x="243.1" y="86.0" fill="#d0d0d0">g</text>
<text x="252.4" y="86.0" fill="#d0d0d0">s</text>
<text x="271.0" y="86.0" fill="#d0d0d0">t</text>
<text x="280.4" y="86.0" fill="#d0d0d0">h</text>
<text x="289.7" y="86.0" fill="#d0d0d0">e</text>
<text x="308.3" y="86.0" fill="#d0d0d0">s</text>
<text x="317.6" y="86.0" fill="#d0d0d0">e</text>
<text x="327.0" y="86.0" fill="#d0d0d0">l</text>
<text x="336.3" y="86.0" fill="#d0d0d0">e</text>
<text x="345.6" y="86.0" fill="#d0d0d0">c</text>
<text x="354.9" y="86.0" fill="#d0d0d0">t</text>
<text x="364.3" y="86.0" fill="#d0d0d0">i</text>
<text x="373.6" y="86.0" fill="#d0d0d0">o</text>
<text x="382.9" y="86.0" fill="#d0d0d0">n</text>
<text x="401.5" y="86.0" fill="#d0d0d0">•</text>
<text x="420.2" y="86.0" fill="#d0d0d0">t</text>
<text x="438.8" y="86.0" fill="#d0d0d0">o</text>
<text x="448.1" y="86.0" fill="#d0d0d0">p</text>
<text x="457.5" y="86.0" fill="#d0d0d0">e</text>
<text x="466.8" y="86.0" fill="#d0d0d0">n</text>
<text x="476.1" y="86.0" fill="#d0d0d0">s</text>
<text x="494.8" y="86.0" fill="#d0d0d0">t</text>
<text x="504.1" y="86.0" fill="#d0d0d0">u</text>
<text x="513.4" y="86.0" fill="#d0d0d0">t</text>
<text x="522.7" y="86.0" fill="#d0d0d0">o</text>
<text x="532.0" y="86.0" fill="#d0d0d0">r</text>
<text x="541.4" y="86.0" fill="#d0d0d0">i</text>
<text x="550.7" y="86.0" fill="#d0d0d0">a</text>
<text x="560.0" y="86.0" fill="#d0d0d0">l</text>
<text x="578.6" y="86.0" fill="#d0d0d0">•</text>
<text x="597.3" y="86.0" fill="#d0d0d0">E</text>
<text x="606.6" y="86.0" fill="#d0d0d0">s</text>
<text x="615.9" y="86.0" fill="#d0d0d0">c</text>
<text x="634.6" y="86.0" fill="#d0d0d0">r</text>
<text x="643.9" y="86.0" fill="#d0d0d0">e</text>
<text x="653.2" y="86.0" fill="#d0d0d0">t</text>
<text x="662.5" y="86.0" fill="#d0d0d0">u</text>
<text x="671.9" y="86.0" fill="#d0d0d0">r</text>
<text x="681.2" y="86.0" fill="#d0d0d0">n</text>
<text x="690.5" y="86.0" fill="#d0d0d0">s</text>
<text x="38.0" y="103.6" fill="#585858">┌</text>
<text x="47.3" y="103.6" fill="#585858">─</text>
<text x="56.6" y="103.6" fill="#585858">─</text>
<text x="66.0" y="103.6" fill="#585858">─</text>
<text x="75.3" y="103.6" fill="#585858">─</text>
<text x="84.6" y="103.6" fill="#585858">─</text>
<text x="93.9" y="103.6" fill="#585858">─</text>
<text x="103.3" y="103.6" fill="#585858">─</text>
<text x="112.6" y="103.6" fill="#585858">─</text>
<text x="121.9" y="103.6" fill="#585858">─</text>
<text x="131.2" y="103.6" fill="#585858">─</text>
<text x="140.5" y="103.6" fill="#585858">─</text>
<text x="149.9" y="103.6" fill="#585858">─</text>
<text x="159.2" y="103.6" fill="#585858">─</text>
<text x="168.5" y="103.6" fill="#585858">─</text>
<text x="177.8" y="103.6" fill="#585858">─</text>
<text x="187.1" y="103.6" fill="#585858">─</text>
<text x="196.5" y="103.6" fill="#585858">─</text>
<text x="205.8" y="103.6" fill="#585858">─</text>
<text x="215.1" y="103.6" fill="#585858">─</text>
<text x="224.4" y="103.6" fill="#585858">─</text>
<text x="233.8" y="103.6" fill="#585858">─</text>
<text x="243.1" y="103.6" fill="#585858">─</text>
<text x="252.4" y="103.6" fill="#585858">─</text>
<text x="261.7" y="103.6" fill="#585858">─</text>
<text x="271.0" y="103.6" fill="#585858">─</text>
<text x="280.4" y="103.6" fill="#585858">┬</text>
<text x="289.7" y="103.6" fill="#585858">─</text>
<text x="299.0" y="103.6" fill="#585858">─</text>
<text x="308.3" y="103.6" fill="#585858">─</text>
<text x="317.6" y="103.6" fill="#585858">─</text>
<text x="327.0" y="103.6" fill="#585858">─</text>
<text x="336.3" y="103.6" fill="#585858">─</text>
<text x="345.6" y="103.6" fill="#585858">─</text>
<text x="354.9" y="103.6" fill="#585858">─</text>
<text x="364.3" y="103.6" fill="#585858">─</text>
<text x="373.6" y="103.6" fill="#585858">─</text>
<text x="382.9" y="103.6" fill="#585858">─</text>
<text x="392.2" y="103.6" fill="#585858">─</text>
<text x="401.5" y="103.6" fill="#585858">─</text>
<text x="410.9" y="103.6" fill="#585858">─</text>
<text x="420.2" y="103.6" fill="#585858">─</text>
<text x="429.5" y="103.6" fill="#585858">─</text>
<text x="438.8" y="103.6" fill="#585858">─</text>
<text x="448.1" y="103.6" fill="#585858">─</text>
<text x="457.5" y="103.6" fill="#585858">─</text>
<text x="466.8" y="103.6" fill="#585858">─</text>
<text x="476.1" y="103.6" fill="#585858">─</text>
<text x="485.4" y="103.6" fill="#585858">─</text>
<text x="494.8" y="103.6" fill="#585858">─</text>
<text x="504.1" y="103.6" fill="#585858">┬</text>
<text x="513.4" y="103.6" fill="#585858">─</text>
<text x="522.7" y="103.6" fill="#585858">─</text>
<text x="532.0" y="103.6" fill="#585858">─</text>
<text x="541.4" y="103.6" fill="#585858">─</text>
<text x="550.7" y="103.6" fill="#585858">─</text>
<text x="560.0" y="103.6" fill="#585858">─</text>
<text x="569.3" y="103.6" fill="#585858">─</text>
<text x="578.6" y="103.6" fill="#585858">─</text>
<text x="588.0" y="103.6" fill="#585858">─</text>
<text x="597.3" y="103.6" fill="#585858">─</text>
<text x="606.6" y="103.6" fill="#585858">─</text>
<text x="615.9" y="103.6" fill="#585858">─</text>
<text x="625.3" y="103.6" fill="#585858">─</text>
<text x="634.6" y="103.6" fill="#585858">─</text>
<text x="643.9" y="103.6" fill="#585858">─</text>
<text x="653.2" y="103.6" fill="#585858">─</text>
<text x="662.5" y="103.6" fill="#585858">─</text>
<text x="671.9" y="103.6" fill="#585858">─</text>
<text x="681.2" y="103.6" fill="#585858">─</text>
<text x="690.5" y="103.6" fill="#585858">─</text>
<text x="699.8" y="103.6" fill="#585858">─</text>
<text x="709.1" y="103.6" fill="#585858">─</text>
<text x="718.5" y="103.6" fill="#585858">─</text>
<text x="727.8" y="103.6" fill="#585858">─</text>
<text x="737.1" y="103.6" fill="#585858">─</text>
<text x="746.4" y="103.6" fill="#585858">─</text>
<text x="755.8" y="103.6" fill="#585858">┐</text>
<text x="38.0" y="121.3" fill="#585858">│</text>
<text x="56.6" y="121.3" fill="#eeeeee" font-weight="700">N</text>
<text x="66.0" y="121.3" fill="#eeeeee" font-weight="700">a</text>
<text x="75.3" y="121.3" fill="#eeeeee" font-weight="700">m</text>
<text x="84.6" y="121.3" fill="#eeeeee" font-weight="700">e</text>
<text x="280.4" y="121.3" fill="#585858">│</text>
<text x="299.0" y="121.3" fill="#eeeeee" font-weight="700">S</text>
<text x="308.3" y="121.3" fill="#eeeeee" font-weight="700">c</text>
<text x="317.6" y="121.3" fill="#eeeeee" font-weight="700">o</text>
<text x="327.0" y="121.3" fill="#eeeeee" font-weight="700">r</text>
<text x="336.3" y="121.3" fill="#eeeeee" font-weight="700">e</text>
<text x="504.1" y="121.3" fill="#585858">│</text>
<text x="522.7" y="121.3" fill="#eeeeee" font-weight="700">S</text>
<text x="532.0" y="121.3" fill="#eeeeee" font-weight="700">t</text>
<text x="541.4" y="121.3" fill="#eeeeee" font-weight="700">a</text>
<text x="550.7" y="121.3" fill="#eeeeee" font-weight="700">t</text>
<text x="560.0" y="121.3" fill="#eeeeee" font-weight="700">u</text>
<text x="569.3" y="121.3" fill="#eeeeee" font-weight="700">s</text>
<text x="755.8" y="121.3" fill="#585858">│</text>
<text x="38.0" y="138.9" fill="#585858">├</text>
<text x="47.3" y="138.9" fill="#585858">─</text>
<text x="56.6" y="138.9" fill="#585858">─</text>
<text x="66.0" y="138.9" fill="#585858">─</text>
<text x="75.3" y="138.9" fill="#585858">─</text>
<text x="84.6" y="138.9" fill="#585858">─</text>
<text x="93.9" y="138.9" fill="#585858">─</text>
<text x="103.3" y="138.9" fill="#585858">─</text>
<text x="112.6" y="138.9" fill="#585858">─</text>
<text x="121.9" y="138.9" fill="#585858">─</text>
<text x="131.2" y="138.9" fill="#585858">─</text>
<text x="140.5" y="138.9" fill="#585858">─</text>
<text x="149.9" y="138.9" fill="#585858">─</text>
<text x="159.2" y="138.9" fill="#585858">─</text>
<text x="168.5" y="138.9" fill="#585858">─</text>
<text x="177.8" y="138.9" fill="#585858">─</text>
<text x="187.1" y="138.9" fill="#585858">─</text>
<text x="196.5" y="138.9" fill="#585858">─</text>
<text x="205.8" y="138.9" fill="#585858">─</text>
<text x="215.1" y="138.9" fill="#585858">─</text>
<text x="224.4" y="138.9" fill="#585858">─</text>
<text x="233.8" y="138.9" fill="#585858">─</text>
<text x="243.1" y="138.9" fill="#585858">─</text>
<text x="252.4" y="138.9" fill="#585858">─</text>
<text x="261.7" y="138.9" fill="#585858">─</text>
<text x="271.0" y="138.9" fill="#585858">─</text>
<text x="280.4" y="138.9" fill="#585858">┼</text>
<text x="289.7" y="138.9" fill="#585858">─</text>
<text x="299.0" y="138.9" fill="#585858">─</text>
<text x="308.3" y="138.9" fill="#585858">─</text>
<text x="317.6" y="138.9" fill="#585858">─</text>
<text x="327.0" y="138.9" fill="#585858">─</text>
<text x="336.3" y="138.9" fill="#585858">─</text>
<text x="345.6" y="138.9" fill="#585858">─</text>
<text x="354.9" y="138.9" fill="#585858">─</text>
<text x="364.3" y="138.9" fill="#585858">─</text>
<text x="373.6" y="138.9" fill="#585858">─</text>
<text x="382.9" y="138.9" fill="#585858">─</text>
<text x="392.2" y="138.9" fill="#585858">─</text>
<text x="401.5" y="138.9" fill="#585858">─</text>
<text x="410.9" y="138.9" fill="#585858">─</text>
<text x="420.2" y="138.9" fill="#585858">─</text>
<text x="429.5" y="138.9" fill="#585858">─</text>
<text x="438.8" y="138.9" fill="#585858">─</text>
<text x="448.1" y="138.9" fill="#585858">─</text>
<text x="457.5" y="138.9" fill="#585858">─</text>
<text x="466.8" y="138.9" fill="#585858">─</text>
<text x="476.1" y="138.9" fill="#585858">─</text>
<text x="485.4" y="138.9" fill="#585858">─</text>
<text x="494.8" y="138.9" fill="#585858">─</text>
<text x="504.1" y="138.9" fill="#585858">┼</text>
<text x="513.4" y="138.9" fill="#585858">─</text>
<text x="522.7" y="138.9" fill="#585858">─</text>
<text x="532.0" y="138.9" fill="#585858">─</text>
<text x="541.4" y="138.9" fill="#585858">─</text>
<text x="550.7" y="138.9" fill="#585858">─</text>
<text x="560.0" y="138.9" fill="#585858">─</text>
<text x="569.3" y="138.9" fill="#585858">─</text>
<text x="578.6" y="138.9" fill="#585858">─</text>
<text x="588.0" y="138.9" fill="#585858">─</text>
<text x="597.3" y="138.9" fill="#585858">─</text>
<text x="606.6" y="138.9" fill="#585858">─</text>
<text x="615.9" y="138.9" fill="#585858">─</text>
<text x="625.3" y="138.9" fill="#585858">─</text>
<text x="634.6" y="138.9" fill="#585858">─</text>
<text x="643.9" y="138.9" fill="#585858">─</text>
<text x="653.2" y="138.9" fill="#585858">─</text>
<text x="662.5" y="138.9" fill="#585858">─</text>
<text x="671.9" y="138.9" fill="#585858">─</text>
<text x="681.2" y="138.9" fill="#585858">─</text>
<text x="690.5" y="138.9" fill="#585858">─</text>
<text x="699.8" y="138.9" fill="#585858">─</text>
<text x="709.1" y="138.9" fill="#585858">─</text>
<text x="718.5" y="138.9" fill="#585858">─</text>
<text x="727.8" y="138.9" fill="#585858">─</text>
<text x="737.1" y="138.9" fill="#585858">─</text>
<text x="746.4" y="138.9" fill="#585858">─</text>
<text x="755.8" y="138.9" fill="#585858">┤</text>
<text x="38.0" y="156.5" fill="#eeeeee">│</text>
<text x="56.6" y="156.5" fill="#eeeeee">A</text>
<text x="66.0" y="156.5" fill="#eeeeee">l</text>
<text x="75.3" y="156.5" fill="#eeeeee">i</text>
<text x="84.6" y="156.5" fill="#eeeeee">c</text>
<text x="93.9" y="156.5" fill="#eeeeee">e</text>
<text x="280.4" y="156.5" fill="#eeeeee">│</text>
<text x="299.0" y="156.5" fill="#eeeeee">4</text>
<text x="308.3" y="156.5" fill="#eeeeee">2</text>
<text x="504.1" y="156.5" fill="#eeeeee">│</text>
<text x="522.7" y="156.5" fill="#eeeeee">A</text>
<text x="532.0" y="156.5" fill="#eeeeee">c</text>
<text x="541.4" y="156.5" fill="#eeeeee">t</text>
<text x="550.7" y="156.5" fill="#eeeeee">i</text>
<text x="560.0" y="156.5" fill="#eeeeee">v</text>
<text x="569.3" y="156.5" fill="#eeeeee">e</text>
<text x="755.8" y="156.5" fill="#eeeeee">│</text>
<text x="38.0" y="174.1" fill="#585858">│</text>
<text x="56.6" y="174.1" fill="#d0d0d0">B</text>
<text x="66.0" y="174.1" fill="#d0d0d0">o</text>
<text x="75.3" y="174.1" fill="#d0d0d0">b</text>
<text x="280.4" y="174.1" fill="#585858">│</text>
<text x="299.0" y="174.1" fill="#d0d0d0">7</text>
<text x="504.1" y="174.1" fill="#585858">│</text>
<text x="522.7" y="174.1" fill="#d0d0d0">I</text>
<text x="532.0" y="174.1" fill="#d0d0d0">n</text>
<text x="541.4" y="174.1" fill="#d0d0d0">a</text>
<text x="550.7" y="174.1" fill="#d0d0d0">c</text>
<text x="560.0" y="174.1" fill="#d0d0d0">t</text>
<text x="569.3" y="174.1" fill="#d0d0d0">i</text>
<text x="578.6" y="174.1" fill="#d0d0d0">v</text>
<text x="588.0" y="174.1" fill="#d0d0d0">e</text>
<text x="755.8" y="174.1" fill="#585858">│</text>
<text x="38.0" y="191.8" fill="#585858">│</text>
<text x="56.6" y="191.8" fill="#d0d0d0">C</text>
<text x="66.0" y="191.8" fill="#d0d0d0">h</text>
<text x="75.3" y="191.8" fill="#d0d0d0">a</text>
<text x="84.6" y="191.8" fill="#d0d0d0">r</text>
<text x="93.9" y="191.8" fill="#d0d0d0">l</text>
<text x="103.3" y="191.8" fill="#d0d0d0">i</text>
<text x="112.6" y="191.8" fill="#d0d0d0">e</text>
<text x="280.4" y="191.8" fill="#585858">│</text>
<text x="299.0" y="191.8" fill="#d0d0d0">9</text>
<text x="308.3" y="191.8" fill="#d0d0d0">9</text>
<text x="504.1" y="191.8" fill="#585858">│</text>
<text x="522.7" y="191.8" fill="#d0d0d0">A</text>
<text x="532.0" y="191.8" fill="#d0d0d0">c</text>
<text x="541.4" y="191.8" fill="#d0d0d0">t</text>
<text x="550.7" y="191.8" fill="#d0d0d0">i</text>
<text x="560.0" y="191.8" fill="#d0d0d0">v</text>
<text x="569.3" y="191.8" fill="#d0d0d0">e</text>
<text x="755.8" y="191.8" fill="#585858">│</text>
<text x="38.0" y="209.4" fill="#585858">└</text>
<text x="47.3" y="209.4" fill="#585858">─</text>
<text x="56.6" y="209.4" fill="#585858">─</text>
<text x="66.0" y="209.4" fill="#585858">─</text>
<text x="75.3" y="209.4" fill="#585858">─</text>
<text x="84.6" y="209.4" fill="#585858">─</text>
<text x="93.9" y="209.4" fill="#585858">─</text>
<text x="103.3" y="209.4" fill="#585858">─</text>
<text x="112.6" y="209.4" fill="#585858">─</text>
<text x="121.9" y="209.4" fill="#585858">─</text>
<text x="131.2" y="209.4" fill="#585858">─</text>
<text x="140.5" y="209.4" fill="#585858">─</text>
<text x="149.9" y="209.4" fill="#585858">─</text>
<text x="159.2" y="209.4" fill="#585858">─</text>
<text x="168.5" y="209.4" fill="#585858">─</text>
<text x="177.8" y="209.4" fill="#585858">─</text>
<text x="187.1" y="209.4" fill="#585858">─</text>
<text x="196.5" y="209.4" fill="#585858">─</text>
<text x="205.8" y="209.4" fill="#585858">─</text>
<text x="215.1" y="209.4" fill="#585858">─</text>
<text x="224.4" y="209.4" fill="#585858">─</text>
<text x="233.8" y="209.4" fill="#585858">─</text>
<text x="243.1" y="209.4" fill="#585858">─</text>
<text x="252.4" y="209.4" fill="#585858">─</text>
<text x="261.7" y="209.4" fill="#585858">─</text>
<text x="271.0" y="209.4" fill="#585858">─</text>
<text x="280.4" y="209.4" fill="#585858">┴</text>
<text x="289.7" y="209.4" fill="#585858">─</text>
<text x="299.0" y="209.4" fill="#585858">─</text>
<text x="308.3" y="209.4" fill="#585858">─</text>
<text x="317.6" y="209.4" fill="#585858">─</text>
<text x="327.0" y="209.4" fill="#585858">─</text>
<text x="336.3" y="209.4" fill="#585858">─</text>
<text x="345.6" y="209.4" fill="#585858">─</text>
<text x="354.9" y="209.4" fill="#585858">─</text>
<text x="364.3" y="209.4" fill="#585858">─</text>
<text x="373.6" y="209.4" fill="#585858">─</text>
<text x="382.9" y="209.4" fill="#585858">─</text>
<text x="392.2" y="209.4" fill="#585858">─</text>
<text x="401.5" y="209.4" fill="#585858">─</text>
<text x="410.9" y="209.4" fill="#585858">─</text>
<text x="420.2" y="209.4" fill="#585858">─</text>
<text x="429.5" y="209.4" fill="#585858">─</text>
<text x="438.8" y="209.4" fill="#585858">─</text>
<text x="448.1" y="209.4" fill="#585858">─</text>
<text x="457.5" y="209.4" fill="#585858">─</text>
<text x="466.8" y="209.4" fill="#585858">─</text>
<text x="476.1" y="209.4" fill="#585858">─</text>
<text x="485.4" y="209.4" fill="#585858">─</text>
<text x="494.8" y="209.4" fill="#585858">─</text>
<text x="504.1" y="209.4" fill="#585858">┴</text>
<text x="513.4" y="209.4" fill="#585858">─</text>
<text x="522.7" y="209.4" fill="#585858">─</text>
<text x="532.0" y="209.4" fill="#585858">─</text>
<text x="541.4" y="209.4" fill="#585858">─</text>
<text x="550.7" y="209.4" fill="#585858">─</text>
<text x="560.0" y="209.4" fill="#585858">─</text>
<text x="569.3" y="209.4" fill="#585858">─</text>
<text x="578.6" y="209.4" fill="#585858">─</text>
<text x="588.0" y="209.4" fill="#585858">─</text>
<text x="597.3" y="209.4" fill="#585858">─</text>
<text x="606.6" y="209.4" fill="#585858">─</text>
<text x="615.9" y="209.4" fill="#585858">─</text>
<text x="625.3" y="209.4" fill="#585858">─</text>
<text x="634.6" y="209.4" fill="#585858">─</text>
<text x="643.9" y="209.4" fill="#585858">─</text>
<text x="653.2" y="209.4" fill="#585858">─</text>
<text x="662.5" y="209.4" fill="#585858">─</text>
<text x="671.9" y="209.4" fill="#585858">─</text>
<text x="681.2" y="209.4" fill="#585858">─</text>
<text x="690.5" y="209.4" fill="#585858">─</text>
<text x="699.8" y="209.4" fill="#585858">─</text>
<text x="709.1" y="209.4" fill="#585858">─</text>
<text x="718.5" y="209.4" fill="#585858">─</text>
<text x="727.8" y="209.4" fill="#585858">─</text>
<text x="737.1" y="209.4" fill="#585858">─</text>
<text x="746.4" y="209.4" fill="#585858">─</text>
<text x="755.8" y="209.4" fill="#585858">┘</text>
  </g>
</svg>
